<svg width="45" height="45" viewBox="0 0 45 45" fill="none" xmlns="http://www.w3.org/2000/svg">
<rect x="0.989258" y="0.5" width="44" height="44" rx="4" fill="#2271B1"/>
<path d="M30.9056 20.1726L17.1619 15.0781L17.1494 15.0742C16.9281 14.998 16.69 14.9855 16.462 15.038C16.234 15.0905 16.0253 15.2059 15.8596 15.3711C15.694 15.5364 15.578 15.7448 15.525 15.9727C15.4719 16.2005 15.4839 16.4387 15.5595 16.6601C15.5605 16.6644 15.5618 16.6686 15.5634 16.6726L20.6619 30.4164C20.7456 30.6614 20.9044 30.8739 21.1158 31.0235C21.3271 31.1732 21.5803 31.2524 21.8392 31.25H21.8627C22.1267 31.248 22.3832 31.1612 22.5941 31.0023C22.8051 30.8435 22.9595 30.6211 23.0345 30.3679L24.8752 24.3867L30.8564 22.5461C31.1077 22.4687 31.3283 22.3141 31.4866 22.1042C31.645 21.8943 31.7331 21.6398 31.7385 21.3769C31.7439 21.114 31.6662 20.8561 31.5165 20.6399C31.3668 20.4237 31.1528 20.2602 30.9048 20.1726H30.9056ZM30.4892 21.3515L24.508 23.1922C24.3133 23.2522 24.1362 23.3588 23.9921 23.5029C23.8481 23.6469 23.7414 23.824 23.6814 24.0187L21.8408 30L21.8361 29.9867L16.7392 16.25L30.4752 21.3453L30.4877 21.35L30.4892 21.3515Z" fill="white"/>
</svg>
