<svg width="271" height="23" viewBox="0 0 271 23" fill="none" xmlns="http://www.w3.org/2000/svg">
<path d="M2.09706 20.6276V4.45755H5.83639V5.69558H3.51194V19.3896H5.83639V20.6276H2.09706Z" fill="white"/>
<path d="M18.62 13.9913C18.7271 14.8029 19.6555 15.344 20.7926 15.344C21.9885 15.344 22.7644 14.8187 22.7644 14.1069C22.7644 13.4502 22.256 13.1298 20.8915 12.8514L19.313 12.5467C17.0896 12.1291 15.9445 10.9471 15.9445 9.15052C15.9445 6.85227 17.9512 5.37351 20.7417 5.37351C23.7597 5.37351 25.5416 6.81024 25.5737 9.03495L22.7403 9.03495C22.6815 8.17343 21.8708 7.656 20.7685 7.656C19.6662 7.656 18.9866 8.13141 18.9866 8.85372C18.9866 9.4946 19.5217 9.84656 20.7845 10.1013L22.347 10.3876C24.7309 10.8394 25.8011 11.8979 25.8011 13.7707C25.8011 16.1346 23.8186 17.6265 20.7177 17.6265C17.6167 17.6265 15.7385 16.2948 15.701 13.9913L18.62 13.9913Z" fill="white"/>
<path d="M36.3246 17.6265L36.3246 12.8592L31.5087 12.8592L31.5087 17.6265L28.4506 17.6265L28.4506 5.78587L31.5167 5.78587L31.5167 10.4297L36.3326 10.4297L36.3326 5.78587L39.3907 5.78587L39.3907 17.6265L36.3246 17.6265Z" fill="white"/>
<path d="M42.0403 17.6265L46.0884 5.78587L49.8341 5.78587L53.9009 17.6265L50.6368 17.6265L49.8743 15.0262L45.9359 15.0262L42.0403 17.6265ZM46.5272 12.8592L49.2776 12.8592L47.9399 8.29688L47.873 8.29688L46.5272 12.8592Z" fill="white"/>
<path d="M56.5504 17.6265L56.5504 5.78587L61.7757 5.78587C64.3655 5.78587 66.1207 7.43536 66.1207 9.98839C66.1207 12.5414 64.2746 14.1646 61.591 14.1646L59.6192 14.1646L56.5504 17.6265ZM59.6192 11.9005L60.9569 11.9005C62.2599 11.9005 63.0278 11.236 63.0278 9.99627C63.0278 8.75653 62.2599 8.09989 60.973 8.09989L59.6352 8.09989L59.6192 11.9005Z" fill="white"/>
<path d="M80.6816 11.5039C80.6816 15.2783 78.3833 17.6265 74.7286 17.6265C71.0738 17.6265 68.7702 15.2783 68.7702 11.5039C68.7702 7.72954 71.0765 5.3735 74.7286 5.3735C78.3807 5.3735 80.6816 7.72954 80.6816 11.5039ZM71.8952 11.5039C71.8952 13.7523 73.0082 15.1811 74.7286 15.1811C76.4489 15.1811 77.5646 13.7523 77.5646 11.5039C77.5646 9.25558 76.4436 7.82672 74.7286 7.82672C73.0136 7.82672 71.8952 9.25821 71.8952 11.5039Z" fill="white"/>
<path d="M87.612 8.83007L89.1397 14.6795L89.2066 14.6795L91.5236 5.78587L94.884 5.78587L91.0366 17.6265L87.1759 17.6265L83.3312 5.78587" fill="white"/>
<path d="M97.5336 17.6265L101.587 5.78587L105.333 5.78587L109.386 17.6265L106.135 17.6265L105.373 15.0262L101.429 15.0262L97.5336 17.6265ZM102.023 12.8592L104.773 12.8592L103.436 8.29688L103.369 8.29688L102.023 12.8592Z" fill="white"/>
<path d="M115.104 15.1969L120.094 15.1969L120.094 17.6265L112.036 17.6265L112.036 5.78587" fill="white"/>
<path d="M129.509 17.3218L133.64 5.25793L137.464 5.25793L141.595 17.3218L138.272 17.3218L137.488 14.6716L133.475 14.6716L129.509 17.3218ZM134.079 12.4653L136.883 12.4653L135.519 7.81622L135.452 7.81622L134.079 12.4653Z" fill="white"/>
<path d="M156.19 10.9523L156.19 12.4337C156.19 15.7275 154.112 17.742 150.612 17.742C146.821 17.742 144.539 15.4438 144.539 11.4803C144.539 7.5667 146.821 5.25793 150.534 5.25793C153.515 5.25793 155.746 6.98885 156.062 9.46045L152.972 9.46045C152.664 8.39144 151.744 7.74005 150.542 7.74005C148.771 7.74005 147.725 9.10061 147.725 11.4514C147.725 13.8022 148.884 15.2888 150.668 15.2888C152.084 15.2888 153.076 14.4693 153.156 13.2559L153.156 13.072L150.909 13.072" fill="white"/>
<path d="M167.56 17.3218L159.134 17.3218L159.134 5.25793L167.56 5.25793L167.56 7.73479L162.262 7.73479L162.262 10.1355L167.244 10.1355L167.244 12.3917L162.262 12.3917L162.262 14.8502L167.56 14.8502L167.56 17.3218Z" fill="white"/>
<path d="M170.504 17.3218L170.504 5.25794L172.997 5.25794L178.212 12.2735L178.279 12.2735L178.279 5.25794L181.243 5.25794L181.243 17.3218L178.774 17.3218L173.535 10.23L173.468 10.23L173.468 17.3218L170.504 17.3218Z" fill="white"/>
<path d="M184.187 11.4777C184.187 7.5378 186.491 5.25793 190.14 5.25793C193.241 5.25793 195.593 7.21736 195.686 10.0593L192.687 10.0593C192.535 8.64359 191.507 7.69539 190.14 7.69539C188.441 7.69539 187.363 9.12162 187.363 11.4566C187.363 13.7917 188.433 15.2626 190.159 15.2626C191.526 15.2626 192.521 14.3774 192.717 12.9696L195.713 12.9696C195.569 15.8299 193.305 17.7131 190.151 17.7131C186.472 17.7053 184.187 15.4123 184.187 11.4777Z" fill="white"/>
<path d="M202.89 17.3218L202.89 13.1771L198.657 5.25793L202.012 5.25793L204.455 10.2747L204.516 10.2747L206.951 5.25793L210.247 5.25793L206.015 13.1771L206.015 17.3218L202.89 17.3218Z" fill="white"/>
<path d="M223.294 4.45755V20.6276H219.555V19.3896H221.879V5.69558H219.555V4.45755H223.294Z" fill="white"/>
<rect x="234.448" y="0.5" width="36" height="22" rx="3.5" stroke="white"/>
<path d="M245.102 15H242.747V7.72727H245.176C245.889 7.72727 246.501 7.87287 247.012 8.16406C247.524 8.45289 247.916 8.86837 248.188 9.41051C248.462 9.95028 248.6 10.5978 248.6 11.353C248.6 12.1106 248.461 12.7616 248.184 13.3061C247.91 13.8506 247.512 14.2696 246.991 14.5632C246.47 14.8544 245.84 15 245.102 15ZM243.845 14.0412H245.041C245.595 14.0412 246.056 13.937 246.423 13.7287C246.79 13.518 247.064 13.2138 247.247 12.8161C247.429 12.416 247.52 11.9283 247.52 11.353C247.52 10.7824 247.429 10.2983 247.247 9.90057C247.067 9.50284 246.798 9.20099 246.441 8.99503C246.083 8.78906 245.639 8.68608 245.109 8.68608H243.845V14.0412ZM250.164 15V7.72727H254.724V8.67188H251.262V10.8878H254.486V11.8288H251.262V14.0554H254.767V15H250.164ZM257.025 7.72727L259.049 13.6506H259.131L261.155 7.72727H262.341L259.724 15H258.456L255.839 7.72727H257.025Z" fill="white"/>
</svg>
