<svg width="45" height="45" viewBox="0 0 45 45" fill="none" xmlns="http://www.w3.org/2000/svg">
<rect x="0.989258" y="0.5" width="44" height="44" rx="4" fill="#2271B1"/>
<path d="M24.8854 15.4632C24.9066 15.3839 24.9432 15.3096 24.9932 15.2444C25.0431 15.1793 25.1055 15.1246 25.1766 15.0835C25.2477 15.0425 25.3261 15.0158 25.4076 15.0051C25.489 14.9944 25.5717 14.9998 25.651 15.0211C26.8096 15.3234 27.8667 15.9291 28.7135 16.7758C29.5602 17.6225 30.1659 18.6796 30.4682 19.8382C30.4894 19.9176 30.4949 20.0003 30.4841 20.0817C30.4734 20.1631 30.4468 20.2416 30.4057 20.3127C30.3646 20.3838 30.31 20.4461 30.2448 20.4961C30.1797 20.546 30.1053 20.5827 30.026 20.6039C29.9732 20.6177 29.9188 20.6248 29.8643 20.625C29.7265 20.625 29.5927 20.5795 29.4835 20.4955C29.3743 20.4116 29.2958 20.294 29.2604 20.1609C29.0138 19.2151 28.5195 18.3521 27.8283 17.6609C27.1371 16.9698 26.2742 16.4754 25.3283 16.2289C25.2489 16.2077 25.1745 16.1712 25.1093 16.1212C25.044 16.0713 24.9893 16.009 24.9481 15.9379C24.907 15.8668 24.8803 15.7883 24.8695 15.7068C24.8587 15.6254 24.8641 15.5426 24.8854 15.4632ZM24.7033 18.7289C25.7807 19.0164 26.4729 19.7086 26.7604 20.7859C26.7958 20.919 26.8743 21.0366 26.9835 21.1205C27.0927 21.2045 27.2265 21.25 27.3643 21.25C27.4188 21.2498 27.4732 21.2427 27.526 21.2289C27.6053 21.2077 27.6797 21.171 27.7448 21.1211C27.81 21.0711 27.8646 21.0088 27.9057 20.9377C27.9468 20.8666 27.9734 20.7881 27.9841 20.7067C27.9949 20.6253 27.9894 20.5426 27.9682 20.4632C27.5682 18.9664 26.5229 17.9211 25.026 17.5211C24.9467 17.4999 24.864 17.4945 24.7826 17.5053C24.7012 17.5161 24.6228 17.5428 24.5517 17.5839C24.4806 17.625 24.4184 17.6796 24.3685 17.7448C24.3185 17.81 24.2819 17.8843 24.2607 17.9636C24.2396 18.0429 24.2342 18.1256 24.245 18.207C24.2558 18.2884 24.2825 18.3669 24.3236 18.4379C24.3647 18.509 24.4193 18.5712 24.4845 18.6212C24.5497 18.6711 24.624 18.7077 24.7033 18.7289ZM31.1049 26.1781C30.9656 27.2367 30.4457 28.2084 29.6423 28.9117C28.8389 29.6151 27.807 30.0019 26.7393 30C20.5361 30 15.4893 24.9531 15.4893 18.75C15.4874 17.6822 15.8742 16.6503 16.5775 15.8469C17.2808 15.0435 18.2525 14.5236 19.3111 14.3843C19.5788 14.3517 19.8499 14.4064 20.0839 14.5405C20.318 14.6745 20.5023 14.8806 20.6096 15.1281L22.2596 18.8117V18.8211C22.3417 19.0105 22.3756 19.2173 22.3583 19.423C22.341 19.6287 22.273 19.8269 22.1604 20C22.1463 20.0211 22.1315 20.0406 22.1158 20.0601L20.4893 21.9882C21.0744 23.1773 22.3182 24.4101 23.5229 24.9968L25.4244 23.3789C25.4431 23.3632 25.4627 23.3486 25.483 23.3351C25.6559 23.2198 25.8548 23.1494 26.0617 23.1303C26.2687 23.1112 26.4771 23.144 26.6682 23.2257L26.6783 23.2304L30.3588 24.8797C30.6067 24.9865 30.8133 25.1707 30.9478 25.4048C31.0823 25.6388 31.1374 25.9101 31.1049 26.1781ZM29.8643 26.0218C29.8643 26.0218 29.8588 26.0218 29.8557 26.0218L26.1838 24.3773L24.2815 25.9953C24.263 26.0109 24.2437 26.0255 24.2236 26.039C24.0438 26.159 23.8358 26.2303 23.6202 26.2459C23.4045 26.2615 23.1885 26.2209 22.9932 26.1281C21.5299 25.4211 20.0713 23.9734 19.3635 22.5257C19.2698 22.3319 19.2277 22.1171 19.2414 21.9022C19.2551 21.6873 19.324 21.4796 19.4416 21.2992C19.4549 21.278 19.4697 21.2579 19.4861 21.239L21.1143 19.3086L19.4736 15.6367C19.4733 15.6336 19.4733 15.6304 19.4736 15.6273C18.716 15.7261 18.0204 16.0977 17.5171 16.6726C17.0138 17.2474 16.7372 17.9859 16.7393 18.75C16.7422 21.4012 17.7967 23.9431 19.6714 25.8178C21.5461 27.6926 24.088 28.7471 26.7393 28.75C27.5028 28.7526 28.2412 28.477 28.8163 27.9748C29.3915 27.4725 29.764 26.778 29.8643 26.0211V26.0218Z" fill="white"/>
</svg>
